# xmcd
#
# Track frame offsets: 
#        150
#        9230
#        65457
#        92870
#        131527
#        169235
#
# Disc length: 2576 seconds
#
# Revision: 0
# Processed by: cddbd v1.5.2PL0 Copyright (c) Steve Scherf et al.
# Submitted via: ExactAudioCopy v0.99pb5
#
DISCID=460a0e06
DTITLE=String Cheese Incident - OTR 04-14-2002 Ann Arbor, MI [CD1]
DYEAR=2002
DGENRE=Jam Band
TTITLE0=Intro
TTITLE1=Shaking The Tree
TTITLE2=Sand Dollar->
TTITLE3=Up The Canyon->
TTITLE4=Sand Dollar
TTITLE5=White Freightliner Blues
EXTD=
EXTT0=
EXTT1=
EXTT2=
EXTT3=
EXTT4=
EXTT5=
PLAYORDER=
